<svg xmlns="http://www.w3.org/2000/svg" width="1440" height="900"><path d="M833,480L822,395L723,402Z" fill="#939393" stroke="#939393" stroke-width="1.51"/><path d="M723,402L703,493L833,480Z" fill="#919191" stroke="#919191" stroke-width="1.51"/><path d="M822,395L687,297L723,402Z" fill="#a2a2a2" stroke="#a2a2a2" stroke-width="1.51"/><path d="M567,356L597,556L703,493Z" fill="#9d9d9d" stroke="#9d9d9d" stroke-width="1.51"/><path d="M833,480L953,379L822,395Z" fill="#8d8d8d" stroke="#8d8d8d" stroke-width="1.51"/><path d="M822,395L874,225L687,297Z" fill="#a5a5a5" stroke="#a5a5a5" stroke-width="1.51"/><path d="M833,480L947,537L953,379Z" fill="#818181" stroke="#818181" stroke-width="1.51"/><path d="M854,662L947,537L833,480Z" fill="#757575" stroke="#757575" stroke-width="1.51"/><path d="M749,682L854,662L833,480Z" fill="#747474" stroke="#747474" stroke-width="1.51"/><path d="M567,356L703,493L723,402Z" fill="#a1a1a1" stroke="#a1a1a1" stroke-width="1.51"/><path d="M687,297L567,356L723,402Z" fill="#adadad" stroke="#adadad" stroke-width="1.51"/><path d="M749,682L833,480L703,493Z" fill="#828282" stroke="#828282" stroke-width="1.51"/><path d="M612,642L749,682L703,493Z" fill="#818181" stroke="#818181" stroke-width="1.51"/><path d="M953,379L874,225L822,395Z" fill="#999999" stroke="#999999" stroke-width="1.51"/><path d="M597,556L612,642L703,493Z" fill="#8d8d8d" stroke="#8d8d8d" stroke-width="1.51"/><path d="M687,297L575,282L567,356Z" fill="#b8b8b8" stroke="#b8b8b8" stroke-width="1.51"/><path d="M596,86L575,282L687,297Z" fill="#c3c3c3" stroke="#c3c3c3" stroke-width="1.51"/><path d="M1144,269L959,228L953,379Z" fill="#919191" stroke="#919191" stroke-width="1.51"/><path d="M953,379L959,228L874,225Z" fill="#9c9c9c" stroke="#9c9c9c" stroke-width="1.51"/><path d="M749,682L861,784L854,662Z" fill="#626262" stroke="#626262" stroke-width="1.51"/><path d="M612,642L685,738L749,682Z" fill="#747474" stroke="#747474" stroke-width="1.51"/><path d="M854,662L981,675L947,537Z" fill="#676767" stroke="#676767" stroke-width="1.51"/><path d="M947,537L1125,503L953,379Z" fill="#777777" stroke="#777777" stroke-width="1.51"/><path d="M861,784L981,675L854,662Z" fill="#5b5b5b" stroke="#5b5b5b" stroke-width="1.51"/><path d="M837,99L743,121L874,225Z" fill="#b5b5b5" stroke="#b5b5b5" stroke-width="1.51"/><path d="M874,225L743,121L687,297Z" fill="#b3b3b3" stroke="#b3b3b3" stroke-width="1.51"/><path d="M567,356L456,537L597,556Z" fill="#a4a4a4" stroke="#a4a4a4" stroke-width="1.51"/><path d="M597,556L430,638L612,642Z" fill="#8f8f8f" stroke="#8f8f8f" stroke-width="1.51"/><path d="M612,642L620,762L685,738Z" fill="#727272" stroke="#727272" stroke-width="1.51"/><path d="M441,388L456,537L567,356Z" fill="#b1b1b1" stroke="#b1b1b1" stroke-width="1.51"/><path d="M575,282L441,388L567,356Z" fill="#bdbdbd" stroke="#bdbdbd" stroke-width="1.51"/><path d="M424,217L441,388L575,282Z" fill="#c6c6c6" stroke="#c6c6c6" stroke-width="1.51"/><path d="M685,738L861,784L749,682Z" fill="#616161" stroke="#616161" stroke-width="1.51"/><path d="M1004,151L837,99L874,225Z" fill="#ababab" stroke="#ababab" stroke-width="1.51"/><path d="M685,738L837,899L861,784Z" fill="#515151" stroke="#515151" stroke-width="1.51"/><path d="M430,638L620,762L612,642Z" fill="#838383" stroke="#838383" stroke-width="1.51"/><path d="M1122,667L1125,503L947,537Z" fill="#636363" stroke="#636363" stroke-width="1.51"/><path d="M1125,503L1133,386L953,379Z" fill="#787878" stroke="#787878" stroke-width="1.51"/><path d="M959,228L1004,151L874,225Z" fill="#a2a2a2" stroke="#a2a2a2" stroke-width="1.51"/><path d="M1144,269L1004,151L959,228Z" fill="#989898" stroke="#989898" stroke-width="1.51"/><path d="M456,537L430,638L597,556Z" fill="#989898" stroke="#989898" stroke-width="1.51"/><path d="M347,607L430,638L456,537Z" fill="#9c9c9c" stroke="#9c9c9c" stroke-width="1.51"/><path d="M743,121L596,86L687,297Z" fill="#c2c2c2" stroke="#c2c2c2" stroke-width="1.51"/><path d="M705,15L596,86L743,121Z" fill="#c9c9c9" stroke="#c9c9c9" stroke-width="1.51"/><path d="M1133,386L1144,269L953,379Z" fill="#858585" stroke="#858585" stroke-width="1.51"/><path d="M1239,282L1144,269L1133,386Z" fill="#7b7b7b" stroke="#7b7b7b" stroke-width="1.51"/><path d="M981,675L1122,667L947,537Z" fill="#5e5e5e" stroke="#5e5e5e" stroke-width="1.51"/><path d="M1125,503L1255,414L1133,386Z" fill="#696969" stroke="#696969" stroke-width="1.51"/><path d="M1096,773L1122,667L981,675Z" fill="#4c4c4c" stroke="#4c4c4c" stroke-width="1.51"/><path d="M483,97L424,217L575,282Z" fill="#d1d1d1" stroke="#d1d1d1" stroke-width="1.51"/><path d="M441,388L340,400L456,537Z" fill="#b5b5b5" stroke="#b5b5b5" stroke-width="1.51"/><path d="M861,784L1003,797L981,675Z" fill="#4e4e4e" stroke="#4e4e4e" stroke-width="1.51"/><path d="M961,904L1003,797L861,784Z" fill="#404040" stroke="#404040" stroke-width="1.51"/><path d="M1004,151L867,3L837,99Z" fill="#b1b1b1" stroke="#b1b1b1" stroke-width="1.51"/><path d="M1144,269L1082,138L1004,151Z" fill="#979797" stroke="#979797" stroke-width="1.51"/><path d="M867,3L705,15L837,99Z" fill="#bebebe" stroke="#bebebe" stroke-width="1.51"/><path d="M837,99L705,15L743,121Z" fill="#c0c0c0" stroke="#c0c0c0" stroke-width="1.51"/><path d="M317,285L340,400L441,388Z" fill="#c7c7c7" stroke="#c7c7c7" stroke-width="1.51"/><path d="M1017,-45L867,3L1004,151Z" fill="#aeaeae" stroke="#aeaeae" stroke-width="1.51"/><path d="M481,-3L483,97L596,86Z" fill="#dbdbdb" stroke="#dbdbdb" stroke-width="1.51"/><path d="M596,86L483,97L575,282Z" fill="#d0d0d0" stroke="#d0d0d0" stroke-width="1.51"/><path d="M300,516L347,607L456,537Z" fill="#a6a6a6" stroke="#a6a6a6" stroke-width="1.51"/><path d="M566,928L683,919L620,762Z" fill="#575757" stroke="#575757" stroke-width="1.51"/><path d="M683,919L837,899L685,738Z" fill="#4f4f4f" stroke="#4f4f4f" stroke-width="1.51"/><path d="M683,919L685,738L620,762Z" fill="#5d5d5d" stroke="#5d5d5d" stroke-width="1.51"/><path d="M1003,797L1096,773L981,675Z" fill="#484848" stroke="#484848" stroke-width="1.51"/><path d="M1122,915L1096,773L1003,797Z" fill="#353535" stroke="#353535" stroke-width="1.51"/><path d="M1246,618L1250,518L1125,503Z" fill="#545454" stroke="#545454" stroke-width="1.51"/><path d="M1246,618L1125,503L1122,667Z" fill="#525252" stroke="#525252" stroke-width="1.51"/><path d="M1250,518L1255,414L1125,503Z" fill="#5d5d5d" stroke="#5d5d5d" stroke-width="1.51"/><path d="M1144,269L1201,108L1082,138Z" fill="#8f8f8f" stroke="#8f8f8f" stroke-width="1.51"/><path d="M705,15L602,-4L596,86Z" fill="#d1d1d1" stroke="#d1d1d1" stroke-width="1.51"/><path d="M592,-151L602,-4L705,15Z" fill="#d3d3d3" stroke="#d3d3d3" stroke-width="1.51"/><path d="M340,400L300,516L456,537Z" fill="#b1b1b1" stroke="#b1b1b1" stroke-width="1.51"/><path d="M419,814L620,762L430,638Z" fill="#7b7b7b" stroke="#7b7b7b" stroke-width="1.51"/><path d="M340,400L178,397L300,516Z" fill="#bebebe" stroke="#bebebe" stroke-width="1.51"/><path d="M424,217L317,285L441,388Z" fill="#cdcdcd" stroke="#cdcdcd" stroke-width="1.51"/><path d="M368,127L317,285L424,217Z" fill="#d9d9d9" stroke="#d9d9d9" stroke-width="1.51"/><path d="M1255,414L1239,282L1133,386Z" fill="#6f6f6f" stroke="#6f6f6f" stroke-width="1.51"/><path d="M810,1040L961,904L837,899Z" fill="#3c3c3c" stroke="#3c3c3c" stroke-width="1.51"/><path d="M837,899L961,904L861,784Z" fill="#414141" stroke="#414141" stroke-width="1.51"/><path d="M1269,734L1246,618L1122,667Z" fill="#414141" stroke="#414141" stroke-width="1.51"/><path d="M1250,518L1331,506L1255,414Z" fill="#545454" stroke="#545454" stroke-width="1.51"/><path d="M310,800L419,814L430,638Z" fill="#7f7f7f" stroke="#7f7f7f" stroke-width="1.51"/><path d="M310,800L430,638L347,607Z" fill="#919191" stroke="#919191" stroke-width="1.51"/><path d="M483,97L368,127L424,217Z" fill="#dcdcdc" stroke="#dcdcdc" stroke-width="1.51"/><path d="M481,-3L368,127L483,97Z" fill="#e0e0e0" stroke="#e0e0e0" stroke-width="1.51"/><path d="M683,919L738,991L837,899Z" fill="#464646" stroke="#464646" stroke-width="1.51"/><path d="M465,885L566,928L620,762Z" fill="#606060" stroke="#606060" stroke-width="1.51"/><path d="M602,-4L481,-3L596,86Z" fill="#dadada" stroke="#dadada" stroke-width="1.51"/><path d="M419,814L465,885L620,762Z" fill="#696969" stroke="#696969" stroke-width="1.51"/><path d="M1239,282L1201,108L1144,269Z" fill="#838383" stroke="#838383" stroke-width="1.51"/><path d="M1082,138L1017,-45L1004,151Z" fill="#a4a4a4" stroke="#a4a4a4" stroke-width="1.51"/><path d="M1113,-1L1017,-45L1082,138Z" fill="#a3a3a3" stroke="#a3a3a3" stroke-width="1.51"/><path d="M867,3L751,-173L705,15Z" fill="#c3c3c3" stroke="#c3c3c3" stroke-width="1.51"/><path d="M602,-4L592,-151L481,-3Z" fill="#dbdbdb" stroke="#dbdbdb" stroke-width="1.51"/><path d="M582,1047L738,991L683,919Z" fill="#4e4e4e" stroke="#4e4e4e" stroke-width="1.51"/><path d="M1201,108L1113,-1L1082,138Z" fill="#979797" stroke="#979797" stroke-width="1.51"/><path d="M1255,414L1398,344L1239,282Z" fill="#676767" stroke="#676767" stroke-width="1.51"/><path d="M1239,282L1337,127L1201,108Z" fill="#7e7e7e" stroke="#7e7e7e" stroke-width="1.51"/><path d="M1246,618L1331,506L1250,518Z" fill="#4b4b4b" stroke="#4b4b4b" stroke-width="1.51"/><path d="M1246,618L1347,644L1331,506Z" fill="#424242" stroke="#424242" stroke-width="1.51"/><path d="M1096,773L1269,734L1122,667Z" fill="#3d3d3d" stroke="#3d3d3d" stroke-width="1.51"/><path d="M1219,861L1269,734L1096,773Z" fill="#2d2d2d" stroke="#2d2d2d" stroke-width="1.51"/><path d="M961,904L1122,915L1003,797Z" fill="#333333" stroke="#333333" stroke-width="1.51"/><path d="M1008,1051L1122,915L961,904Z" fill="#2f2f2f" stroke="#2f2f2f" stroke-width="1.51"/><path d="M419,814L358,878L465,885Z" fill="#6a6a6a" stroke="#6a6a6a" stroke-width="1.51"/><path d="M226,796L310,800L347,607Z" fill="#898989" stroke="#898989" stroke-width="1.51"/><path d="M1068,-167L948,-124L1017,-45Z" fill="#ababab" stroke="#ababab" stroke-width="1.51"/><path d="M1017,-45L948,-124L867,3Z" fill="#b2b2b2" stroke="#b2b2b2" stroke-width="1.51"/><path d="M738,991L810,1040L837,899Z" fill="#424242" stroke="#424242" stroke-width="1.51"/><path d="M582,1047L810,1040L738,991Z" fill="#4a4a4a" stroke="#4a4a4a" stroke-width="1.51"/><path d="M582,1047L683,919L566,928Z" fill="#545454" stroke="#545454" stroke-width="1.51"/><path d="M317,285L178,397L340,400Z" fill="#cccccc" stroke="#cccccc" stroke-width="1.51"/><path d="M300,516L162,643L347,607Z" fill="#a5a5a5" stroke="#a5a5a5" stroke-width="1.51"/><path d="M178,214L178,397L317,285Z" fill="#d8d8d8" stroke="#d8d8d8" stroke-width="1.51"/><path d="M421,1019L582,1047L566,928Z" fill="#5b5b5b" stroke="#5b5b5b" stroke-width="1.51"/><path d="M310,800L358,878L419,814Z" fill="#727272" stroke="#727272" stroke-width="1.51"/><path d="M1269,734L1347,644L1246,618Z" fill="#3a3a3a" stroke="#3a3a3a" stroke-width="1.51"/><path d="M1333,766L1347,644L1269,734Z" fill="#2e2e2e" stroke="#2e2e2e" stroke-width="1.51"/><path d="M1122,915L1219,861L1096,773Z" fill="#2a2a2a" stroke="#2a2a2a" stroke-width="1.51"/><path d="M948,-124L865,-162L867,3Z" fill="#b7b7b7" stroke="#b7b7b7" stroke-width="1.51"/><path d="M865,-162L751,-173L867,3Z" fill="#bebebe" stroke="#bebebe" stroke-width="1.51"/><path d="M178,397L161,541L300,516Z" fill="#bababa" stroke="#bababa" stroke-width="1.51"/><path d="M751,-173L592,-151L705,15Z" fill="#cdcdcd" stroke="#cdcdcd" stroke-width="1.51"/><path d="M207,139L317,285L368,127Z" fill="#e1e1e1" stroke="#e1e1e1" stroke-width="1.51"/><path d="M1331,506L1398,344L1255,414Z" fill="#585858" stroke="#585858" stroke-width="1.51"/><path d="M1201,108L1239,-39L1113,-1Z" fill="#939393" stroke="#939393" stroke-width="1.51"/><path d="M1496,508L1398,344L1331,506Z" fill="#4b4b4b" stroke="#4b4b4b" stroke-width="1.51"/><path d="M421,1019L566,928L465,885Z" fill="#5e5e5e" stroke="#5e5e5e" stroke-width="1.51"/><path d="M58,501L95,603L161,541Z" fill="#b4b4b4" stroke="#b4b4b4" stroke-width="1.51"/><path d="M207,139L178,214L317,285Z" fill="#e2e2e2" stroke="#e2e2e2" stroke-width="1.51"/><path d="M328,-18L368,127L481,-3Z" fill="#e7e7e7" stroke="#e7e7e7" stroke-width="1.51"/><path d="M462,-129L328,-18L481,-3Z" fill="#e7e7e7" stroke="#e7e7e7" stroke-width="1.51"/><path d="M1499,618L1496,508L1331,506Z" fill="#3c3c3c" stroke="#3c3c3c" stroke-width="1.51"/><path d="M1219,861L1333,766L1269,734Z" fill="#242424" stroke="#242424" stroke-width="1.51"/><path d="M1403,218L1337,127L1239,282Z" fill="#737373" stroke="#737373" stroke-width="1.51"/><path d="M1113,-1L1068,-167L1017,-45Z" fill="#a5a5a5" stroke="#a5a5a5" stroke-width="1.51"/><path d="M161,541L162,643L300,516Z" fill="#adadad" stroke="#adadad" stroke-width="1.51"/><path d="M310,800L226,796L358,878Z" fill="#767676" stroke="#767676" stroke-width="1.51"/><path d="M328,-18L207,139L368,127Z" fill="#eaeaea" stroke="#eaeaea" stroke-width="1.51"/><path d="M1219,861L1350,897L1333,766Z" fill="#1a1a1a" stroke="#1a1a1a" stroke-width="1.51"/><path d="M1122,915L1249,1012L1219,861Z" fill="#1d1d1d" stroke="#1d1d1d" stroke-width="1.51"/><path d="M810,1040L1008,1051L961,904Z" fill="#373737" stroke="#373737" stroke-width="1.51"/><path d="M582,1047L1008,1051L810,1040Z" fill="#424242" stroke="#424242" stroke-width="1.51"/><path d="M358,878L421,1019L465,885Z" fill="#626262" stroke="#626262" stroke-width="1.51"/><path d="M162,643L226,796L347,607Z" fill="#989898" stroke="#989898" stroke-width="1.51"/><path d="M592,-151L462,-129L481,-3Z" fill="#e0e0e0" stroke="#e0e0e0" stroke-width="1.51"/><path d="M1398,344L1403,218L1239,282Z" fill="#6a6a6a" stroke="#6a6a6a" stroke-width="1.51"/><path d="M948,-124L1068,-167L865,-162Z" fill="#b0b0b0" stroke="#b0b0b0" stroke-width="1.51"/><path d="M1348,19L1239,-39L1201,108Z" fill="#888888" stroke="#888888" stroke-width="1.51"/><path d="M1233,-96L1239,-39L1369,-115Z" fill="#888888" stroke="#888888" stroke-width="1.51"/><path d="M331,1030L421,1019L358,878Z" fill="#666666" stroke="#666666" stroke-width="1.51"/><path d="M1233,-96L1068,-167L1113,-1Z" fill="#9c9c9c" stroke="#9c9c9c" stroke-width="1.51"/><path d="M865,-162L1068,-167L751,-173Z" fill="#b7b7b7" stroke="#b7b7b7" stroke-width="1.51"/><path d="M1008,1051L1120,1042L1122,915Z" fill="#2a2a2a" stroke="#2a2a2a" stroke-width="1.51"/><path d="M30,781L166,895L226,796Z" fill="#7e7e7e" stroke="#7e7e7e" stroke-width="1.51"/><path d="M161,541L95,603L162,643Z" fill="#ababab" stroke="#ababab" stroke-width="1.51"/><path d="M58,501L161,541L178,397Z" fill="#bfbfbf" stroke="#bfbfbf" stroke-width="1.51"/><path d="M1239,-39L1233,-96L1113,-1Z" fill="#939393" stroke="#939393" stroke-width="1.51"/><path d="M1348,19L1201,108L1337,127Z" fill="#818181" stroke="#818181" stroke-width="1.51"/><path d="M49,248L65,394L178,397Z" fill="#d8d8d8" stroke="#d8d8d8" stroke-width="1.51"/><path d="M49,248L178,397L178,214Z" fill="#dfdfdf" stroke="#dfdfdf" stroke-width="1.51"/><path d="M1482,102L1348,19L1337,127Z" fill="#787878" stroke="#787878" stroke-width="1.51"/><path d="M97,108L49,248L178,214Z" fill="#ebebeb" stroke="#ebebeb" stroke-width="1.51"/><path d="M328,-18L237,-31L207,139Z" fill="#f0f0f0" stroke="#f0f0f0" stroke-width="1.51"/><path d="M290,-97L237,-31L328,-18Z" fill="#f1f1f1" stroke="#f1f1f1" stroke-width="1.51"/><path d="M65,394L58,501L178,397Z" fill="#c9c9c9" stroke="#c9c9c9" stroke-width="1.51"/><path d="M1398,344L1484,235L1403,218Z" fill="#636363" stroke="#636363" stroke-width="1.51"/><path d="M1403,218L1482,102L1337,127Z" fill="#707070" stroke="#707070" stroke-width="1.51"/><path d="M1499,618L1331,506L1347,644Z" fill="#3a3a3a" stroke="#3a3a3a" stroke-width="1.51"/><path d="M462,-129L290,-97L328,-18Z" fill="#ececec" stroke="#ececec" stroke-width="1.51"/><path d="M1505,740L1499,618L1347,644Z" fill="#2c2c2c" stroke="#2c2c2c" stroke-width="1.51"/><path d="M1249,1012L1350,897L1219,861Z" fill="#151515" stroke="#151515" stroke-width="1.51"/><path d="M232,1031L331,1030L358,878Z" fill="#696969" stroke="#696969" stroke-width="1.51"/><path d="M421,1019L331,1030L582,1047Z" fill="#616161" stroke="#616161" stroke-width="1.51"/><path d="M166,895L358,878L226,796Z" fill="#747474" stroke="#747474" stroke-width="1.51"/><path d="M1522,404L1484,235L1398,344Z" fill="#5b5b5b" stroke="#5b5b5b" stroke-width="1.51"/><path d="M1120,1042L1249,1012L1122,915Z" fill="#212121" stroke="#212121" stroke-width="1.51"/><path d="M1505,740L1347,644L1333,766Z" fill="#272727" stroke="#272727" stroke-width="1.51"/><path d="M1496,508L1522,404L1398,344Z" fill="#4e4e4e" stroke="#4e4e4e" stroke-width="1.51"/><path d="M1587,493L1522,404L1496,508Z" fill="#464646" stroke="#464646" stroke-width="1.51"/><path d="M65,394L-34,422L58,501Z" fill="#cacaca" stroke="#cacaca" stroke-width="1.51"/><path d="M97,108L178,214L207,139Z" fill="#ededed" stroke="#ededed" stroke-width="1.51"/><path d="M108,36L97,108L207,139Z" fill="#f3f3f3" stroke="#f3f3f3" stroke-width="1.51"/><path d="M108,36L207,139L237,-31Z" fill="#f4f4f4" stroke="#f4f4f4" stroke-width="1.51"/><path d="M30,781L162,643L95,603Z" fill="#a0a0a0" stroke="#a0a0a0" stroke-width="1.51"/><path d="M30,781L226,796L162,643Z" fill="#8f8f8f" stroke="#8f8f8f" stroke-width="1.51"/><path d="M160,-138L108,36L237,-31Z" fill="#f8f8f8" stroke="#f8f8f8" stroke-width="1.51"/><path d="M-84,118L-46,284L49,248Z" fill="#ededed" stroke="#ededed" stroke-width="1.51"/><path d="M1484,235L1482,102L1403,218Z" fill="#6a6a6a" stroke="#6a6a6a" stroke-width="1.51"/><path d="M1348,19L1369,-115L1239,-39Z" fill="#838383" stroke="#838383" stroke-width="1.51"/><path d="M1645,97L1482,102L1484,235Z" fill="#6d6d6d" stroke="#6d6d6d" stroke-width="1.51"/><path d="M1504,1021L1339,993L1249,1012Z" fill="#0b0b0b" stroke="#0b0b0b" stroke-width="1.51"/><path d="M1249,1012L1339,993L1350,897Z" fill="#111111" stroke="#111111" stroke-width="1.51"/><path d="M1350,897L1505,740L1333,766Z" fill="#181818" stroke="#181818" stroke-width="1.51"/><path d="M1499,618L1587,493L1496,508Z" fill="#3d3d3d" stroke="#3d3d3d" stroke-width="1.51"/><path d="M1483,941L1505,740L1350,897Z" fill="#0a0a0a" stroke="#0a0a0a" stroke-width="1.51"/><path d="M166,895L232,1031L358,878Z" fill="#6c6c6c" stroke="#6c6c6c" stroke-width="1.51"/><path d="M331,1030L232,1031L582,1047Z" fill="#656565" stroke="#656565" stroke-width="1.51"/><path d="M-46,284L-34,422L65,394Z" fill="#d8d8d8" stroke="#d8d8d8" stroke-width="1.51"/><path d="M-55,671L30,781L95,603Z" fill="#a1a1a1" stroke="#a1a1a1" stroke-width="1.51"/><path d="M-46,284L65,394L49,248Z" fill="#e0e0e0" stroke="#e0e0e0" stroke-width="1.51"/><path d="M1522,404L1660,255L1484,235Z" fill="#5f5f5f" stroke="#5f5f5f" stroke-width="1.51"/><path d="M1609,654L1587,493L1499,618Z" fill="#363636" stroke="#363636" stroke-width="1.51"/><path d="M1233,-96L1369,-115L1068,-167Z" fill="#8f8f8f" stroke="#8f8f8f" stroke-width="1.51"/><path d="M1470,-2L1369,-115L1348,19Z" fill="#7c7c7c" stroke="#7c7c7c" stroke-width="1.51"/><path d="M166,895L90,914L232,1031Z" fill="#717171" stroke="#717171" stroke-width="1.51"/><path d="M-46,549L95,603L58,501Z" fill="#b7b7b7" stroke="#b7b7b7" stroke-width="1.51"/><path d="M1482,102L1470,-2L1348,19Z" fill="#757575" stroke="#757575" stroke-width="1.51"/><path d="M1591,27L1470,-2L1482,102Z" fill="#747474" stroke="#747474" stroke-width="1.51"/><path d="M-34,422L-46,549L58,501Z" fill="#c2c2c2" stroke="#c2c2c2" stroke-width="1.51"/><path d="M30,781L90,914L166,895Z" fill="#797979" stroke="#797979" stroke-width="1.51"/><path d="M-34,422L-162,506L-46,549Z" fill="#c2c2c2" stroke="#c2c2c2" stroke-width="1.51"/><path d="M-84,118L49,248L97,108Z" fill="#f2f2f2" stroke="#f2f2f2" stroke-width="1.51"/><path d="M108,36L-84,118L97,108Z" fill="#f7f7f7" stroke="#f7f7f7" stroke-width="1.51"/><path d="M290,-97L160,-138L237,-31Z" fill="#f4f4f4" stroke="#f4f4f4" stroke-width="1.51"/><path d="M462,-129L160,-138L290,-97Z" fill="#efefef" stroke="#efefef" stroke-width="1.51"/><path d="M592,-151L160,-138L462,-129Z" fill="#e8e8e8" stroke="#e8e8e8" stroke-width="1.51"/><path d="M92,-144L160,-138L592,-151Z" fill="#f1f1f1" stroke="#f1f1f1" stroke-width="1.51"/><path d="M1505,740L1609,654L1499,618Z" fill="#2b2b2b" stroke="#2b2b2b" stroke-width="1.51"/><path d="M1596,786L1609,654L1505,740Z" fill="#212121" stroke="#212121" stroke-width="1.51"/><path d="M1587,493L1635,426L1522,404Z" fill="#4a4a4a" stroke="#4a4a4a" stroke-width="1.51"/><path d="M1781,415L1635,426L1778,553Z" fill="#474747" stroke="#474747" stroke-width="1.51"/><path d="M-46,549L-55,671L95,603Z" fill="#afafaf" stroke="#afafaf" stroke-width="1.51"/><path d="M30,781L-49,917L90,914Z" fill="#7b7b7b" stroke="#7b7b7b" stroke-width="1.51"/><path d="M-73,781L-55,671L-155,629Z" fill="#a0a0a0" stroke="#a0a0a0" stroke-width="1.51"/><path d="M1339,993L1483,941L1350,897Z" fill="#070707" stroke="#070707" stroke-width="1.51"/><path d="M1483,941L1596,786L1505,740Z" fill="#111111" stroke="#111111" stroke-width="1.51"/><path d="M1722,225L1660,255L1781,415Z" fill="#5f5f5f" stroke="#5f5f5f" stroke-width="1.51"/><path d="M160,-138L92,-144L108,36Z" fill="#fafafa" stroke="#fafafa" stroke-width="1.51"/><path d="M751,-173L92,-144L592,-151Z" fill="#e3e3e3" stroke="#e3e3e3" stroke-width="1.51"/><path d="M1660,255L1635,426L1781,415Z" fill="#565656" stroke="#565656" stroke-width="1.51"/><path d="M1635,426L1660,255L1522,404Z" fill="#565656" stroke="#565656" stroke-width="1.51"/><path d="M-55,671L-73,781L30,781Z" fill="#949494" stroke="#949494" stroke-width="1.51"/><path d="M90,914L37,1017L232,1031Z" fill="#737373" stroke="#737373" stroke-width="1.51"/><path d="M-155,629L-55,671L-46,549Z" fill="#aeaeae" stroke="#aeaeae" stroke-width="1.51"/><path d="M1645,97L1591,27L1482,102Z" fill="#737373" stroke="#737373" stroke-width="1.51"/><path d="M1470,-2L1507,-135L1369,-115Z" fill="#777777" stroke="#777777" stroke-width="1.51"/><path d="M-228,414L-162,506L-34,422Z" fill="#cacaca" stroke="#cacaca" stroke-width="1.51"/><path d="M-73,-32L-84,118L108,36Z" fill="#fcfcfc" stroke="#fcfcfc" stroke-width="1.51"/><path d="M1634,1043L1504,1021L1120,1042Z" fill="#030303" stroke="#030303" stroke-width="1.51"/><path d="M1120,1042L1504,1021L1249,1012Z" fill="#141414" stroke="#141414" stroke-width="1.51"/><path d="M1339,993L1504,1021L1483,941Z" fill="#000000" stroke="#000000" stroke-width="1.51"/><path d="M1483,941L1642,877L1596,786Z" fill="#080808" stroke="#080808" stroke-width="1.51"/><path d="M1596,-105L1507,-135L1470,-2Z" fill="#777777" stroke="#777777" stroke-width="1.51"/><path d="M1369,-115L1507,-135L1068,-167Z" fill="#848484" stroke="#848484" stroke-width="1.51"/><path d="M-49,917L37,1017L90,914Z" fill="#767676" stroke="#767676" stroke-width="1.51"/><path d="M1591,27L1596,-105L1470,-2Z" fill="#777777" stroke="#777777" stroke-width="1.51"/><path d="M1660,255L1645,97L1484,235Z" fill="#696969" stroke="#696969" stroke-width="1.51"/><path d="M-157,291L-34,422L-46,284Z" fill="#dedede" stroke="#dedede" stroke-width="1.51"/><path d="M-84,118L-157,291L-46,284Z" fill="#ebebeb" stroke="#ebebeb" stroke-width="1.51"/><path d="M-162,506L-155,629L-46,549Z" fill="#b6b6b6" stroke="#b6b6b6" stroke-width="1.51"/><path d="M-73,781L-49,917L30,781Z" fill="#838383" stroke="#838383" stroke-width="1.51"/><path d="M-185,794L-49,917L-73,781Z" fill="#838383" stroke="#838383" stroke-width="1.51"/><path d="M1634,1043L1642,877L1483,941Z" fill="#000000" stroke="#000000" stroke-width="1.51"/><path d="M1788,644L1778,553L1609,654Z" fill="#323232" stroke="#323232" stroke-width="1.51"/><path d="M1660,255L1722,225L1645,97Z" fill="#696969" stroke="#696969" stroke-width="1.51"/><path d="M1778,27L1596,-105L1591,27Z" fill="#777777" stroke="#777777" stroke-width="1.51"/><path d="M1635,426L1587,493L1778,553Z" fill="#434343" stroke="#434343" stroke-width="1.51"/><path d="M-35,-118L-73,-32L108,36Z" fill="#ffffff" stroke="#ffffff" stroke-width="1.51"/><path d="M-84,118L-157,96L-157,291Z" fill="#f2f2f2" stroke="#f2f2f2" stroke-width="1.51"/><path d="M92,-144L-35,-118L108,36Z" fill="#fcfcfc" stroke="#fcfcfc" stroke-width="1.51"/><path d="M1778,27L1591,27L1645,97Z" fill="#747474" stroke="#747474" stroke-width="1.51"/><path d="M-174,-17L-157,96L-73,-32Z" fill="#fefefe" stroke="#fefefe" stroke-width="1.51"/><path d="M-73,-32L-157,96L-84,118Z" fill="#fbfbfb" stroke="#fbfbfb" stroke-width="1.51"/><path d="M-157,291L-228,414L-34,422Z" fill="#d7d7d7" stroke="#d7d7d7" stroke-width="1.51"/><path d="M-157,96L-228,414L-157,291Z" fill="#e6e6e6" stroke="#e6e6e6" stroke-width="1.51"/><path d="M-162,506L-228,414L-155,629Z" fill="#bebebe" stroke="#bebebe" stroke-width="1.51"/><path d="M1778,553L1587,493L1609,654Z" fill="#393939" stroke="#393939" stroke-width="1.51"/><path d="M1738,798L1609,654L1596,786Z" fill="#1e1e1e" stroke="#1e1e1e" stroke-width="1.51"/><path d="M-155,629L-185,794L-73,781Z" fill="#969696" stroke="#969696" stroke-width="1.51"/><path d="M-49,917L-96,1002L37,1017Z" fill="#777777" stroke="#777777" stroke-width="1.51"/><path d="M-228,414L-185,794L-155,629Z" fill="#aeaeae" stroke="#aeaeae" stroke-width="1.51"/><path d="M1642,877L1738,798L1596,786Z" fill="#111111" stroke="#111111" stroke-width="1.51"/><path d="M1767,867L1738,798L1642,877Z" fill="#0c0c0c" stroke="#0c0c0c" stroke-width="1.51"/><path d="M1738,798L1788,644L1609,654Z" fill="#262626" stroke="#262626" stroke-width="1.51"/><path d="M1778,553L1788,644L1781,415Z" fill="#3d3d3d" stroke="#3d3d3d" stroke-width="1.51"/><path d="M-210,893L-96,1002L-49,917Z" fill="#777777" stroke="#777777" stroke-width="1.51"/><path d="M1749,1067L1634,1043L1120,1042Z" fill="#000000" stroke="#000000" stroke-width="1.51"/><path d="M1504,1021L1634,1043L1483,941Z" fill="#000000" stroke="#000000" stroke-width="1.51"/><path d="M-199,-101L-174,-17L-73,-32Z" fill="#ffffff" stroke="#ffffff" stroke-width="1.51"/><path d="M-157,96L-174,-17L-228,414Z" fill="#f2f2f2" stroke="#f2f2f2" stroke-width="1.51"/><path d="M1722,225L1798,157L1645,97Z" fill="#6c6c6c" stroke="#6c6c6c" stroke-width="1.51"/><path d="M1781,415L1798,157L1722,225Z" fill="#626262" stroke="#626262" stroke-width="1.51"/><path d="M1788,644L1798,157L1781,415Z" fill="#505050" stroke="#505050" stroke-width="1.51"/><path d="M1749,1067L1767,867L1642,877Z" fill="#000000" stroke="#000000" stroke-width="1.51"/><path d="M1738,798L1767,867L1788,644Z" fill="#191919" stroke="#191919" stroke-width="1.51"/><path d="M-228,414L-210,893L-185,794Z" fill="#9e9e9e" stroke="#9e9e9e" stroke-width="1.51"/><path d="M-185,794L-210,893L-49,917Z" fill="#7c7c7c" stroke="#7c7c7c" stroke-width="1.51"/><path d="M1798,157L1778,27L1645,97Z" fill="#717171" stroke="#717171" stroke-width="1.51"/><path d="M-35,-118L-199,-101L-73,-32Z" fill="#ffffff" stroke="#ffffff" stroke-width="1.51"/><path d="M-174,-17L-199,-101L-228,414Z" fill="#f8f8f8" stroke="#f8f8f8" stroke-width="1.51"/><path d="M92,-144L-199,-101L-35,-118Z" fill="#ffffff" stroke="#ffffff" stroke-width="1.51"/><path d="M-210,893L-172,1043L-96,1002Z" fill="#777777" stroke="#777777" stroke-width="1.51"/><path d="M-96,1002L-172,1043L37,1017Z" fill="#777777" stroke="#777777" stroke-width="1.51"/><path d="M37,1017L-172,1043L232,1031Z" fill="#767676" stroke="#767676" stroke-width="1.51"/><path d="M232,1031L-172,1043L582,1047Z" fill="#6f6f6f" stroke="#6f6f6f" stroke-width="1.51"/><path d="M582,1047L1749,1067L1008,1051Z" fill="#272727" stroke="#272727" stroke-width="1.51"/><path d="M1778,27L1750,-137L1596,-105Z" fill="#777777" stroke="#777777" stroke-width="1.51"/><path d="M1596,-105L1750,-137L1507,-135Z" fill="#777777" stroke="#777777" stroke-width="1.51"/><path d="M1507,-135L1750,-137L1068,-167Z" fill="#777777" stroke="#777777" stroke-width="1.51"/><path d="M1634,1043L1749,1067L1642,877Z" fill="#000000" stroke="#000000" stroke-width="1.51"/><path d="M1767,867L1749,1067L1788,644Z" fill="#0a0a0a" stroke="#0a0a0a" stroke-width="1.51"/><path d="M1008,1051L1749,1067L1120,1042Z" fill="#141414" stroke="#141414" stroke-width="1.51"/><path d="M-172,1043L1749,1067L582,1047Z" fill="#494949" stroke="#494949" stroke-width="1.51"/></svg>